# xmcd
#
# Track frame offsets:
#	150
#	10502
#	20512
#	32447
#	44172
#	55077
#	72652
#	82777
#	96412
#	106187
#	117722
#
# Disc length: 1758 seconds
#
# Revision: 2
# Processed by: cddbd v1.5.2PL0 Copyright (c) Steve Scherf et al.
# Submitted via: EasyCDDAExtractor 11.5.3.1
#
DISCID=8b06dc0b
DTITLE=Country Sisters - One More Time
DYEAR=1997
DGENRE=Country
TTITLE0=You are looking at country
TTITLE1=Cry, cry, cry
TTITLE2=Don't Follow Me
TTITLE3=Other side of the hill
TTITLE4=Night train to Memphis
TTITLE5=Lord don't forsake me
TTITLE6=That'll be the day
TTITLE7=Love someone like me
TTITLE8=Silver Eagle
TTITLE9=Heanven's just a sin away
TTITLE10=Everybody wants to go to heaven
EXTD=
EXTT0=
EXTT1=
EXTT2=
EXTT3=
EXTT4=
EXTT5=
EXTT6=
EXTT7=
EXTT8=
EXTT9=
EXTT10=
PLAYORDER=
